<svg width="76" height="42" viewBox="0 0 76 42" fill="none" xmlns="http://www.w3.org/2000/svg">
<path fill-rule="evenodd" clip-rule="evenodd" d="M0.5 4.74072C0.5 2.53158 2.29086 0.740723 4.5 0.740723H71.3026C73.5117 0.740723 75.3026 2.53158 75.3026 4.74072V37.2588C75.3026 39.4679 73.5117 41.2588 71.3026 41.2588H4.5C2.29086 41.2588 0.5 39.4679 0.5 37.2588V4.74072Z" fill="black"/>
<path fill-rule="evenodd" clip-rule="evenodd" d="M39.8832 33.9117V33.1584C39.8832 33.1128 39.8747 33.0971 39.8589 33.0808C39.8425 33.0639 39.8195 33.0509 39.7893 33.0424C39.7605 33.0333 39.7309 33.0287 39.6496 33.0287H36.2817C36.2003 33.0287 36.1708 33.0333 36.1406 33.0424C36.1111 33.0509 36.0875 33.0639 36.0711 33.0808C36.056 33.0971 36.0468 33.1128 36.0468 33.1584V33.9117C36.0468 33.9567 36.056 33.973 36.0711 33.9893C36.0875 34.0062 36.1111 34.0193 36.1406 34.0284C36.1708 34.0369 36.2003 34.0414 36.2817 34.0414H39.6496C39.7309 34.0414 39.7605 34.0369 39.7893 34.0284C39.8195 34.0193 39.8425 34.0062 39.8589 33.9893C39.8747 33.973 39.8832 33.9567 39.8832 33.9117ZM47.8158 34.4461C47.8112 34.4559 47.8112 34.4683 47.8112 34.4937V35.2353C47.8112 35.2607 47.8112 35.2738 47.8158 35.2829C47.8204 35.2914 47.827 35.2985 47.8355 35.3031C47.846 35.3083 47.8578 35.3083 47.8834 35.3083H48.4504V36.7551C48.4504 36.7798 48.4504 36.7929 48.4557 36.8026C48.4596 36.8111 48.4662 36.8176 48.4754 36.8222C48.4845 36.8274 48.4977 36.8274 48.5226 36.8274H49.6566C49.6822 36.8274 49.6947 36.8274 49.7045 36.8222C49.713 36.8176 49.7196 36.8111 49.7242 36.8026C49.7288 36.7929 49.7288 36.7798 49.7288 36.7551V33.101C49.7288 33.0756 49.7288 33.0626 49.7242 33.0535C49.7196 33.0443 49.713 33.0378 49.7045 33.0333C49.6947 33.0287 49.6822 33.0287 49.6566 33.0287H48.5226C48.4977 33.0287 48.4845 33.0287 48.4754 33.0333C48.4701 33.0359 48.4655 33.0398 48.4616 33.0437C48.4603 33.0456 48.4583 33.0476 48.457 33.0496L48.4557 33.0535C48.4504 33.0626 48.4504 33.0756 48.4504 33.101V34.4214H47.8834C47.8578 34.4214 47.846 34.4214 47.8355 34.4266C47.827 34.4311 47.8204 34.4377 47.8158 34.4461ZM56.5058 35.9404V33.915H58.9904C59.0159 33.915 59.0291 33.915 59.0383 33.9098C59.0475 33.9052 59.054 33.8987 59.0586 33.8902C59.0639 33.8805 59.0639 33.8681 59.0639 33.8433V33.101C59.0639 33.0756 59.0639 33.0626 59.0586 33.0535C59.054 33.0443 59.0475 33.0378 59.0383 33.0333C59.0291 33.0287 59.0159 33.0287 58.9904 33.0287H55.4276C55.402 33.0287 55.3895 33.0287 55.3797 33.0333C55.3718 33.0378 55.3646 33.0443 55.36 33.0535C55.3548 33.0626 55.3548 33.0756 55.3548 33.101V36.7551C55.3548 36.7798 55.3548 36.7929 55.36 36.8026C55.3646 36.8111 55.3718 36.8176 55.3797 36.8222C55.3895 36.8274 55.402 36.8274 55.4276 36.8274H58.9904C59.0159 36.8274 59.0291 36.8274 59.0383 36.8222C59.0475 36.8176 59.054 36.8111 59.0586 36.8026C59.0639 36.7929 59.0639 36.7798 59.0639 36.7544V36.0128C59.0639 35.988 59.0639 35.975 59.0586 35.9652C59.054 35.9574 59.0475 35.9502 59.0383 35.9457C59.0291 35.9404 59.0159 35.9404 58.9904 35.9404H56.5058ZM56.1272 31.9136C56.1226 31.9234 56.1226 31.9357 56.1226 31.9612V32.7034C56.1226 32.7289 56.1226 32.7412 56.1272 32.751C56.1317 32.7588 56.139 32.766 56.1475 32.7706C56.1573 32.7758 56.1692 32.7758 56.1947 32.7758H56.9448C56.9704 32.7758 56.9829 32.7758 56.9927 32.7706C57.0013 32.766 57.0085 32.7588 57.0131 32.751C57.017 32.7412 57.017 32.7289 57.017 32.7034V31.9612C57.017 31.9357 57.017 31.9234 57.0131 31.9136C57.0098 31.9077 57.0052 31.9025 57.0006 31.8986C56.998 31.8966 56.9954 31.8953 56.9927 31.8934C56.9829 31.8888 56.9704 31.8888 56.9448 31.8888H56.1947C56.1692 31.8888 56.1573 31.8888 56.1475 31.8934C56.139 31.8979 56.1317 31.9051 56.1272 31.9136ZM57.4009 31.9612C57.4009 31.9357 57.4009 31.9234 57.4055 31.9136C57.4101 31.9051 57.4173 31.8979 57.4252 31.8934C57.4351 31.8888 57.4482 31.8888 57.4738 31.8888H58.2232C58.2488 31.8888 58.2619 31.8888 58.2718 31.8934C58.2796 31.8979 58.2869 31.9051 58.2914 31.9136C58.296 31.9234 58.296 31.9357 58.296 31.9612V32.7034C58.296 32.7289 58.296 32.7412 58.2914 32.751C58.2869 32.7588 58.2796 32.766 58.2718 32.7706C58.2619 32.7758 58.2488 32.7758 58.2232 32.7758H57.4738C57.4482 32.7758 57.4351 32.7758 57.4252 32.7706C57.4173 32.766 57.4101 32.7588 57.4055 32.751C57.4009 32.7412 57.4009 32.7289 57.4009 32.7034V31.9612ZM56.767 34.4457C56.7624 34.4555 56.7624 34.4679 56.7624 34.4933V35.2349C56.7624 35.2603 56.7624 35.2734 56.767 35.2825C56.7709 35.291 56.7781 35.2981 56.7867 35.3027C56.7958 35.3079 56.809 35.3079 56.8339 35.3079H58.4798C58.5047 35.3079 58.5178 35.3079 58.527 35.3027C58.5355 35.2981 58.5428 35.291 58.5467 35.2825C58.552 35.2734 58.552 35.2603 58.552 35.2349V34.4933C58.552 34.4679 58.552 34.4555 58.5467 34.4457C58.5428 34.4372 58.5355 34.4307 58.527 34.4262C58.5178 34.421 58.5047 34.421 58.4798 34.421H56.8339C56.809 34.421 56.7958 34.421 56.7867 34.4262C56.7781 34.4307 56.7709 34.4372 56.767 34.4457ZM45.7703 33.0535C45.7651 33.0626 45.7651 33.0756 45.7651 33.101V36.7551C45.7651 36.7798 45.7651 36.7929 45.7703 36.8026C45.7749 36.8111 45.7815 36.8176 45.79 36.8222C45.7999 36.8274 45.8123 36.8274 45.8379 36.8274H46.9713C46.9968 36.8274 47.0093 36.8274 47.0192 36.8222C47.0277 36.8176 47.0343 36.8111 47.0388 36.8026C47.0441 36.7929 47.0441 36.7798 47.0441 36.7551V35.3083H47.6104C47.636 35.3083 47.6485 35.3083 47.659 35.3031C47.6669 35.2985 47.6741 35.2914 47.678 35.2829C47.6833 35.2738 47.6833 35.2607 47.6833 35.2353V34.4937C47.6833 34.4683 47.6833 34.4559 47.678 34.4461C47.6741 34.4377 47.6669 34.4311 47.659 34.4266C47.6485 34.4214 47.636 34.4214 47.6104 34.4214H47.0441V33.101C47.0441 33.0756 47.0441 33.0626 47.0388 33.0535C47.0343 33.0443 47.0277 33.0378 47.0192 33.0333C47.0093 33.0287 46.9968 33.0287 46.9713 33.0287H45.8379C45.8123 33.0287 45.7999 33.0287 45.79 33.0333C45.7815 33.0378 45.7749 33.0443 45.7703 33.0535ZM37.3264 34.2403C37.3264 34.2148 37.3264 34.2025 37.3303 34.1927C37.3349 34.1842 37.3422 34.1771 37.3507 34.1725C37.3599 34.1686 37.373 34.1686 37.3986 34.1686H38.5319C38.5569 34.1686 38.57 34.1686 38.5798 34.1725C38.5877 34.1771 38.5949 34.1842 38.5995 34.1927C38.6048 34.2025 38.6048 34.2148 38.6048 34.2403V36.7551C38.6048 36.7799 38.6048 36.7929 38.5995 36.8027C38.5949 36.8112 38.5877 36.8177 38.5798 36.8223C38.57 36.8275 38.5569 36.8275 38.5319 36.8275H37.3986C37.373 36.8275 37.3599 36.8275 37.3507 36.8223C37.3422 36.8177 37.3349 36.8112 37.3303 36.8027C37.3264 36.7929 37.3264 36.7799 37.3264 36.7551V34.2403ZM66.5024 33.0287C66.4899 33.0287 66.4794 33.0385 66.4794 33.0515V33.8941C66.4794 33.9052 66.4892 33.915 66.5011 33.915H67.2479C67.53 33.915 67.7584 34.1418 67.7584 34.4214C67.7584 34.7009 67.53 34.9277 67.2479 34.9277H66.5011C66.4892 34.9277 66.4794 34.9368 66.4794 34.9486V35.7912C66.4794 35.8036 66.4899 35.814 66.5024 35.814H67.3785C68.1535 35.814 68.7808 35.191 68.7808 34.4214C68.7808 33.6524 68.1535 33.0287 67.3785 33.0287H66.5024ZM28.1193 33.0515C28.1193 33.0385 28.1298 33.0287 28.1423 33.0287H29.0184C29.7927 33.0287 30.4208 33.6524 30.4208 34.4214C30.4208 35.191 29.7927 35.814 29.0184 35.814H28.1423C28.1298 35.814 28.1193 35.8036 28.1193 35.7912V34.9486C28.1193 34.9368 28.1285 34.9277 28.1397 34.9277H28.8878C29.17 34.9277 29.3977 34.7009 29.3977 34.4214C29.3977 34.1418 29.17 33.915 28.8878 33.915H28.1397C28.1285 33.915 28.1193 33.9052 28.1193 33.8941V33.0515ZM65.0783 33.0535C65.0731 33.0626 65.0731 33.0756 65.0731 33.101V36.7551C65.0731 36.7798 65.0731 36.7929 65.0783 36.8026C65.0822 36.8111 65.0895 36.8176 65.098 36.8222C65.1078 36.8274 65.1203 36.8274 65.1459 36.8274H66.1513C66.1769 36.8274 66.1893 36.8274 66.1992 36.8222C66.2077 36.8176 66.2149 36.8111 66.2195 36.8026C66.2241 36.7929 66.2241 36.7798 66.2241 36.7551V33.101C66.2241 33.0756 66.2241 33.0626 66.2195 33.0535C66.2149 33.0443 66.2077 33.0378 66.1992 33.0333C66.1893 33.0287 66.1769 33.0287 66.1513 33.0287H65.1459C65.1203 33.0287 65.1078 33.0287 65.098 33.0333C65.0895 33.0378 65.0822 33.0443 65.0783 33.0535ZM26.713 33.101C26.713 33.0756 26.713 33.0626 26.7176 33.0535C26.7222 33.0443 26.7294 33.0378 26.7379 33.0333C26.7471 33.0287 26.7602 33.0287 26.7858 33.0287H27.7912C27.8161 33.0287 27.8293 33.0287 27.8384 33.0333C27.8476 33.0378 27.8542 33.0443 27.8588 33.0535C27.864 33.0626 27.864 33.0756 27.864 33.101V36.7551C27.864 36.7798 27.864 36.7929 27.8588 36.8026C27.8542 36.8111 27.8476 36.8176 27.8384 36.8222C27.8293 36.8274 27.8161 36.8274 27.7912 36.8274H26.7858C26.7602 36.8274 26.7471 36.8274 26.7379 36.8222C26.7294 36.8176 26.7222 36.8111 26.7176 36.8026C26.713 36.7929 26.713 36.7798 26.713 36.7551V33.101ZM18.4181 35.181C18.399 35.181 18.3813 35.1934 18.3754 35.211L18.1077 35.9696C18.0978 35.9995 18.1195 36.0302 18.151 36.0302H19.302C19.3342 36.0302 19.3565 35.9969 19.3434 35.9669L19.0172 35.2084C19.01 35.1921 18.9936 35.181 18.9759 35.181H18.4181ZM18.2336 33.0919C18.2205 33.0619 18.2421 33.0287 18.275 33.0287H19.3013C19.319 33.0287 19.3348 33.0391 19.3427 33.0554L20.9905 36.7635C21.0036 36.7935 20.9813 36.8274 20.9485 36.8274H19.9228C19.9051 36.8274 19.8887 36.8163 19.8808 36.8007L18.2336 33.0919ZM18.59 34.2352C18.5953 34.2463 18.5959 34.258 18.5913 34.2698L17.5932 36.8094C17.5866 36.8276 17.5696 36.8387 17.5512 36.8387H16.4894C16.4566 36.8387 16.4349 36.8061 16.4467 36.7768L17.9771 33.057C17.9928 33.0198 18.0447 33.0192 18.0604 33.0557L18.59 34.2352ZM9.39535 33.0287H11.0406C11.0661 33.0287 11.078 33.0287 11.0885 33.0333C11.097 33.0378 11.1036 33.0443 11.1081 33.0535C11.1127 33.0626 11.1127 33.0756 11.1127 33.101V36.7551C11.1127 36.7798 11.1127 36.7929 11.1081 36.8026C11.1036 36.8111 11.097 36.8176 11.0885 36.8222C11.078 36.8274 11.0661 36.8274 11.0406 36.8274H10.0352C10.0096 36.8274 9.99647 36.8274 9.98663 36.8222C9.97875 36.8176 9.97153 36.8111 9.96694 36.8026C9.96235 36.7929 9.96235 36.7798 9.96235 36.7551V33.915H9.39535C9.37042 33.915 9.35729 33.915 9.3481 33.9098C9.33892 33.9052 9.3317 33.8987 9.32776 33.8902C9.32317 33.8805 9.32317 33.8681 9.32317 33.8433V33.101C9.32317 33.0756 9.32317 33.0626 9.32776 33.0535C9.3317 33.0443 9.33892 33.0378 9.3481 33.0333C9.35729 33.0287 9.37042 33.0287 9.39535 33.0287ZM7.28166 33.0535C7.27707 33.0626 7.27707 33.0756 7.27707 33.101V36.7551C7.27707 36.7798 7.27707 36.7929 7.28166 36.8026C7.28626 36.8111 7.29348 36.8176 7.30201 36.8222C7.31119 36.8274 7.32432 36.8274 7.34991 36.8274H8.35528C8.38087 36.8274 8.39334 36.8274 8.40318 36.8222C8.41171 36.8176 8.41893 36.8111 8.42353 36.8026C8.42746 36.7929 8.42746 36.7798 8.42746 36.7551V33.915H8.99512C9.02005 33.915 9.03252 33.915 9.04236 33.9098C9.0509 33.9052 9.05746 33.8987 9.06205 33.8902C9.0673 33.8805 9.0673 33.8681 9.0673 33.8433V33.101C9.0673 33.0756 9.0673 33.0626 9.06205 33.0535C9.05746 33.0443 9.0509 33.0378 9.04236 33.0333C9.03252 33.0287 9.02005 33.0287 8.99512 33.0287H7.34991C7.32432 33.0287 7.31119 33.0287 7.30201 33.0333C7.29348 33.0378 7.28626 33.0443 7.28166 33.0535ZM7.27707 27.9448C7.27707 27.8177 7.27707 27.7552 7.30201 27.707C7.32366 27.6646 7.35779 27.6301 7.4011 27.6086C7.44966 27.5838 7.51332 27.5838 7.63997 27.5838H68.2907C68.4173 27.5838 68.481 27.5838 68.5295 27.6086C68.5722 27.6301 68.6076 27.6646 68.6286 27.707C68.6536 27.7552 68.6536 27.8177 68.6536 27.9448V28.1103C68.6536 28.2361 68.6536 28.2993 68.6286 28.3476C68.6076 28.3893 68.5722 28.4245 68.5295 28.446C68.481 28.4701 68.4173 28.4701 68.2907 28.4701H7.63997C7.51332 28.4701 7.44966 28.4701 7.4011 28.446C7.35779 28.4245 7.32366 28.3893 7.30201 28.3476C7.27707 28.2993 7.27707 28.2361 7.27707 28.1103V27.9448ZM37.1801 12.0962C37.207 12.1548 37.2083 12.2213 37.1847 12.2813L32.5208 24.1563C32.4853 24.2482 32.3954 24.3088 32.2957 24.3088H27.3797C27.2091 24.3088 27.0923 24.1361 27.1566 23.9784L34.3799 6.41997C34.4258 6.30984 34.582 6.30788 34.6306 6.41671L37.1801 12.0962ZM35.9463 6.31788C35.9063 6.2286 35.9726 6.12759 36.0704 6.12759H41.1451C41.2396 6.12759 41.3262 6.18299 41.3649 6.26966L49.3101 23.9715C49.3816 24.1305 49.2648 24.309 49.0896 24.309H44.1783C44.0825 24.309 43.9965 24.2537 43.9578 24.167L35.9463 6.31788ZM63.3031 6.12759C63.1699 6.12759 63.0623 6.23447 63.0623 6.36676V12.8615H60.478C60.4032 12.8615 60.3422 12.9221 60.3422 12.9964V17.4402C60.3422 17.5145 60.4032 17.5758 60.478 17.5758H63.0623V24.0692C63.0623 24.2022 63.1699 24.309 63.3031 24.309H68.261C68.3936 24.309 68.5019 24.2022 68.5019 24.0692V6.36676C68.5019 6.23447 68.3936 6.12759 68.261 6.12759H63.3031ZM50.8214 6.36676C50.8214 6.23447 50.9297 6.12759 51.0629 6.12759H56.0209C56.1541 6.12759 56.2617 6.23447 56.2617 6.36676V12.8615H58.846C58.9215 12.8615 58.9825 12.9221 58.9825 12.9964V17.4402C58.9825 17.5145 58.9215 17.5758 58.846 17.5758H56.2617V24.0692C56.2617 24.2022 56.1541 24.309 56.0209 24.309H51.0629C50.9297 24.309 50.8214 24.2022 50.8214 24.0692V6.36676ZM19.5409 24.0692V10.8413H16.9566C16.8812 10.8413 16.8201 10.7806 16.8201 10.7064V6.26249C16.8201 6.1882 16.8812 6.12759 16.9566 6.12759H24.7397C24.8729 6.12759 24.9812 6.23447 24.9812 6.36676V24.0692C24.9812 24.2022 24.8729 24.309 24.7397 24.309H19.7818C19.6485 24.309 19.5409 24.2022 19.5409 24.0692ZM7.30057 6.36676C7.30057 6.23447 7.40819 6.12759 7.54141 6.12759H15.3245C15.3993 6.12759 15.4603 6.1882 15.4603 6.26249V10.7064C15.4603 10.7806 15.3993 10.8413 15.3245 10.8413H12.7408V24.0692C12.7408 24.2022 12.6325 24.309 12.4987 24.309H7.54141C7.40819 24.309 7.30057 24.2022 7.30057 24.0692V6.36676ZM36.5081 16.9013C36.4517 16.9013 36.4005 16.9365 36.3808 16.99L35.0296 20.6199C34.9712 20.7756 35.0873 20.9425 35.2553 20.9425H40.9955C41.1714 20.9425 41.2882 20.7619 41.2154 20.6036L39.5695 16.9815C39.5472 16.9326 39.4986 16.9013 39.4455 16.9013H36.5081ZM0.578749 1.13304C0.5 1.28684 0.5 1.48821 0.5 1.89095V40.1086C0.5 40.5113 0.5 40.7127 0.578749 40.8665C0.648311 41.0014 0.759216 41.1115 0.895059 41.1799C1.04993 41.2588 1.25271 41.2588 1.65827 41.2588H74.1443C74.5499 41.2588 74.7527 41.2588 74.9075 41.1799C75.0434 41.1115 75.1543 41.0014 75.2238 40.8665C75.3026 40.7127 75.3026 40.5113 75.3026 40.1086V1.89095C75.3026 1.48821 75.3026 1.28684 75.2238 1.13304C75.1543 0.997488 75.0434 0.888004 74.9075 0.818925C74.7527 0.740723 74.5499 0.740723 74.1443 0.740723H1.65827C1.25271 0.740723 1.04993 0.740723 0.895059 0.818925C0.759216 0.888004 0.648311 0.997488 0.578749 1.13304Z" fill="white"/>
</svg>
