<svg width="18" height="18" viewBox="0 0 18 18" fill="none" xmlns="http://www.w3.org/2000/svg">
<path d="M8.07668 0.719931C8.41827 -0.101362 9.58173 -0.101364 9.92332 0.719929L11.675 4.9314C11.819 5.27764 12.1446 5.51421 12.5184 5.54418L17.065 5.90868C17.9517 5.97976 18.3112 7.08627 17.6357 7.66494L14.1716 10.6323C13.8868 10.8762 13.7624 11.259 13.8495 11.6238L14.9078 16.0605C15.1142 16.9257 14.1729 17.6096 13.4138 17.1459L9.52125 14.7684C9.20124 14.5729 8.79876 14.5729 8.47875 14.7684L4.58619 17.1459C3.82709 17.6096 2.88583 16.9257 3.09222 16.0605L4.15055 11.6238C4.23756 11.259 4.11318 10.8762 3.8284 10.6323L0.364336 7.66494C-0.311201 7.08627 0.0483234 5.97976 0.934978 5.90868L5.48162 5.54418C5.85541 5.51421 6.18102 5.27764 6.32503 4.93141L8.07668 0.719931Z" fill="currentColor"/>
</svg>
