<svg width="21" height="15" viewBox="0 0 21 15" fill="none" xmlns="http://www.w3.org/2000/svg">
<path fill-rule="evenodd" clip-rule="evenodd" d="M5.13127 8.40723V6.19592C5.13127 4.13625 4.18835 3.17499 2.1637 3.17499H2V1.59529C2 0.939945 2.52908 0.407227 3.17865 0.407227H17.82C18.4709 0.407227 19 0.939945 19 1.59529V3.10246H18.835C16.8601 3.10246 15.8268 4.65842 15.8268 6.19592V8.40723H5.13127Z" fill="currentColor" fill-opacity="0.5"/>
<path fill-rule="evenodd" clip-rule="evenodd" d="M17.3934 14.4072C17.3033 14.4072 17.2301 14.3378 17.2301 14.2537V13.2725H3.76856V14.2537C3.76856 14.3378 3.69544 14.4072 3.60534 14.4072H2.18723C2.09843 14.4072 2.024 14.3378 2.024 14.2537V13.2725H1.17523C0.52624 13.2725 0 12.7813 0 12.1755V6.0459C0 5.56811 0.191954 5.40723 0.75998 5.40723H2.61031C3.11043 5.40723 3.36376 5.66684 3.36376 6.17754V9.34046C3.36376 9.77681 3.74506 10.1315 4.21254 10.1315H16.7862C17.2549 10.1315 17.6349 9.77681 17.6349 9.34046V6.50541C17.6349 6.24823 17.6989 5.40723 18.5477 5.40723H20.1578C20.8538 5.40723 21 6.00325 21 6.50541V12.1755C21 12.7813 20.4725 13.2725 19.8235 13.2725H18.976V14.2537C18.976 14.3365 18.9003 14.4072 18.8115 14.4072H17.3934Z" fill="currentColor"/>
</svg>
